<svg width="24" height="25" viewBox="0 0 24 25" fill="none" xmlns="http://www.w3.org/2000/svg">
    <rect width="24" height="24" rx="8" transform="matrix(-1 0 0 1 24 0.706543)" fill="#0071F3" />
    <path
        d="M13.4936 5.70654H12.2208H9.3987C8.95601 5.70654 8.54099 6.03856 8.48565 6.50891L8.20897 8.39034V8.41801H6.82557C6.46589 8.41801 6.16154 8.72235 6.16154 9.08204C6.16154 9.46939 6.46589 9.74607 6.82557 9.77374H7.98763L7.79395 11.0741V11.1848H6.41055C6.05087 11.1848 5.74652 11.4892 5.74652 11.8488C5.74652 12.2085 6.05087 12.5129 6.41055 12.5129H7.57261L6.93624 16.5524L6.74257 17.9081L6.6319 18.6275C6.54889 19.2085 6.96391 19.7065 7.54494 19.7065H8.43032H9.64771H10.6438C11.0864 19.7065 11.4738 19.3745 11.5568 18.9042L12.1378 15.1967H12.4698H13.5766C16.1774 15.1967 18.3078 13.0386 18.2525 10.4101C18.2248 7.72631 16.0667 5.70654 13.4936 5.70654ZM9.34336 9.7184L13.4936 9.74607C13.8532 9.74607 14.1853 10.0504 14.1853 10.4378C14.1853 10.8251 13.8809 11.1295 13.4936 11.1295H9.12202L9.34336 9.7184ZM13.5212 13.7579H12.8295H12.4975H11.8058C11.3631 13.7579 10.9758 14.0899 10.8928 14.5603L10.3117 18.2678H8.0153L8.90067 12.4575H13.4936C14.6003 12.4575 15.5133 11.5445 15.5133 10.4378C15.5133 9.33105 14.6003 8.41801 13.4936 8.41801L9.5647 8.39034L9.75838 7.06227H13.5766C15.458 7.06227 16.9521 8.61168 16.9244 10.4931C16.8691 12.3192 15.3473 13.7579 13.5212 13.7579Z"
        fill="white" />
</svg>