<svg width="24" height="25" viewBox="0 0 24 25" fill="none" xmlns="http://www.w3.org/2000/svg">
    <rect width="24" height="24" rx="8" transform="matrix(-1 0 0 1 24 0.706543)" fill="#2775CA" />
    <path
        d="M14.5598 14.0639C14.5598 12.7065 13.7453 12.2411 12.1164 12.0472C10.9529 11.8921 10.7202 11.5818 10.7202 11.0388C10.7202 10.4958 11.1081 10.1468 11.8837 10.1468C12.5818 10.1468 12.9697 10.3795 13.1636 10.9613C13.2024 11.0776 13.3187 11.1552 13.4351 11.1552H14.0556C14.2107 11.1552 14.3271 11.0388 14.3271 10.8837V10.8449C14.1719 9.99165 13.4738 9.33236 12.5818 9.25482V8.32401C12.5818 8.16885 12.4655 8.05249 12.2716 8.01368H11.6898C11.5346 8.01368 11.4183 8.13003 11.3795 8.32401V9.21601C10.216 9.37117 9.47914 10.1468 9.47914 11.1164C9.47914 12.3963 10.2548 12.9004 11.8837 13.0944C12.9697 13.2883 13.3187 13.521 13.3187 14.1416C13.3187 14.7621 12.7757 15.1887 12.0389 15.1887C11.0304 15.1887 10.6814 14.762 10.565 14.1803C10.5263 14.0252 10.4099 13.9476 10.2936 13.9476H9.63421C9.47914 13.9476 9.36279 14.0639 9.36279 14.2191V14.2579C9.51786 15.2274 10.1384 15.9256 11.4183 16.1195V17.0503C11.4183 17.2054 11.5346 17.3218 11.7285 17.3606H12.3103C12.4655 17.3606 12.5818 17.2442 12.6206 17.0503V16.1195C13.7841 15.9256 14.5598 15.1111 14.5598 14.0639Z"
        fill="white" />
    <path
        d="M10.022 18.1362C6.9969 17.0503 5.44553 13.6762 6.57031 10.6898C7.15207 9.06084 8.43193 7.8198 10.022 7.23804C10.1772 7.1605 10.2547 7.04415 10.2547 6.85017V6.30723C10.2547 6.15207 10.1772 6.03572 10.022 5.99699C9.98322 5.99699 9.90568 5.99699 9.86687 6.03572C6.18245 7.19923 4.16566 11.1164 5.32917 14.8009C6.02728 16.9727 7.69501 18.6404 9.86687 19.3386C10.022 19.4161 10.1772 19.3386 10.2159 19.1834C10.2547 19.1447 10.2547 19.1059 10.2547 19.0283V18.4853C10.2547 18.3689 10.1384 18.2139 10.022 18.1362ZM14.1331 6.03572C13.978 5.95818 13.8228 6.03572 13.7841 6.19088C13.7453 6.2297 13.7453 6.26842 13.7453 6.34605V6.88899C13.7453 7.04415 13.8616 7.19923 13.978 7.27686C17.0031 8.36274 18.5545 11.7369 17.4297 14.7233C16.8479 16.3522 15.5681 17.5933 13.978 18.175C13.8228 18.2526 13.7453 18.3689 13.7453 18.5629V19.1059C13.7453 19.261 13.8228 19.3774 13.978 19.4161C14.0168 19.4161 14.0943 19.4161 14.1331 19.3774C17.8176 18.2139 19.8343 14.2966 18.6708 10.6122C17.9727 8.40155 16.2662 6.73382 14.1331 6.03572Z"
        fill="white" />
</svg>