<svg width="24" height="25" viewBox="0 0 24 25" fill="none" xmlns="http://www.w3.org/2000/svg">
    <rect width="24" height="24" rx="8" transform="matrix(-1 0 0 1 24 0.706543)" fill="#50AF95" />
    <path fill-rule="evenodd" clip-rule="evenodd"
        d="M13.5693 13.2323C13.4816 13.2387 13.0288 13.2654 12.0186 13.2654C11.2152 13.2654 10.6448 13.2416 10.4446 13.2323C7.33973 13.0977 5.02219 12.5651 5.02219 11.9275C5.02219 11.2898 7.33973 10.758 10.4446 10.6213V12.7019C10.6477 12.7163 11.2291 12.7501 12.0325 12.7501C12.9966 12.7501 13.4794 12.7105 13.5663 12.7026V10.6227C16.6647 10.7587 18.9771 11.2913 18.9771 11.9275C18.9771 12.5637 16.6654 13.0963 13.5663 13.2316L13.5693 13.2323ZM13.5693 10.4075V8.54569H17.8932V5.70654H6.1207V8.54569H10.4439V10.4068C6.92998 10.5658 4.28741 11.2517 4.28741 12.0736C4.28741 12.8955 6.92998 13.5806 10.4439 13.7404V19.7065H13.5685V13.7382C17.0744 13.5792 19.7126 12.894 19.7126 12.0729C19.7126 11.2517 17.0766 10.5666 13.5685 10.4068L13.5693 10.4075Z"
        fill="white" />
</svg>