<svg width="58" height="59" viewBox="0 0 58 59" fill="none" xmlns="http://www.w3.org/2000/svg">
    <path
        d="M29.0001 58.4153C44.9385 58.4153 57.8592 45.4947 57.8592 29.5563C57.8592 13.6179 44.9385 0.697266 29.0001 0.697266C13.0617 0.697266 0.141113 13.6179 0.141113 29.5563C0.141113 45.4947 13.0617 58.4153 29.0001 58.4153Z"
        fill="#F4F6F8" />
    <path fill-rule="evenodd" clip-rule="evenodd"
        d="M15.5165 39.599C14.7324 38.8211 14.7273 37.5548 15.5052 36.7706L36.1055 16.0036C36.8834 15.2194 38.1497 15.2143 38.9339 15.9922L42.4837 19.5135C43.2678 20.2914 43.2729 21.5577 42.495 22.3419L21.8947 43.1089C21.1168 43.8931 19.8505 43.8982 19.0663 43.1203L15.5165 39.599Z"
        fill="url(#paint0_linear_1049_680)" />
    <path fill-rule="evenodd" clip-rule="evenodd"
        d="M39.0429 43.0398C38.265 43.824 36.9986 43.8291 36.2145 43.0512L15.4475 22.4508C14.6633 21.6729 14.6582 20.4066 15.4361 19.6224L18.9573 16.0727C19.7352 15.2885 21.0015 15.2834 21.7857 16.0613L42.5527 36.6616C43.3369 37.4395 43.342 38.7058 42.5641 39.49L39.0429 43.0398Z"
        fill="url(#paint1_linear_1049_680)" />
    <defs>
        <linearGradient id="paint0_linear_1049_680" x1="29.0001" y1="15.4121" x2="29.0001"
            y2="43.7004" gradientUnits="userSpaceOnUse">
            <stop stop-color="#FF5630" />
            <stop offset="1" stop-color="#B71D18" />
        </linearGradient>
        <linearGradient id="paint1_linear_1049_680" x1="29.0001" y1="15.4121" x2="29.0001"
            y2="43.7004" gradientUnits="userSpaceOnUse">
            <stop stop-color="#FF5630" />
            <stop offset="1" stop-color="#B71D18" />
        </linearGradient>
    </defs>
</svg>