<svg width="58" height="58" viewBox="0 0 58 58" fill="none" xmlns="http://www.w3.org/2000/svg">
    <path
        d="M29.0001 57.859C44.9385 57.859 57.8592 44.9384 57.8592 29C57.8592 13.0616 44.9385 0.140961 29.0001 0.140961C13.0617 0.140961 0.141113 13.0616 0.141113 29C0.141113 44.9384 13.0617 57.859 29.0001 57.859Z"
        fill="#F4F6F8" />
    <path
        d="M22.1403 42.1423L12.0181 30.978C11.6446 30.566 11.4498 30.0226 11.4766 29.4672C11.5033 28.9118 11.7494 28.3897 12.1609 28.0155L14.9734 25.46C15.3853 25.0865 15.9287 24.8917 16.4841 24.9185C17.0396 24.9452 17.5617 25.1914 17.9358 25.6028L24.0319 32.3128L40.8213 16.7013C41.2287 16.3233 41.7693 16.1223 42.3246 16.1423C42.88 16.1624 43.4047 16.4019 43.7837 16.8083L46.3678 19.5923C46.5558 19.7936 46.7023 20.03 46.7987 20.288C46.8951 20.546 46.9396 20.8205 46.9297 21.0957C46.9197 21.371 46.8555 21.6416 46.7407 21.892C46.6259 22.1423 46.4628 22.3675 46.2607 22.5547L25.0884 42.2423C24.8888 42.4303 24.6539 42.577 24.3974 42.6738C24.1408 42.7707 23.8676 42.8157 23.5935 42.8064C23.3194 42.7971 23.0499 42.7337 22.8005 42.6197C22.551 42.5057 22.3267 42.3435 22.1403 42.1423Z"
        fill="url(#paint0_linear_1_3837)" />
    <defs>
        <linearGradient id="paint0_linear_1_3837" x1="11.4741" y1="16.141" x2="11.4741" y2="42.8076"
            gradientUnits="userSpaceOnUse">
            <stop stop-color="#5BE39A" />
            <stop offset="1" stop-color="#007867" />
        </linearGradient>
    </defs>
</svg>