<svg width="14" height="14" viewBox="0 0 14 14" fill="none" xmlns="http://www.w3.org/2000/svg">
    <rect x="0.25" y="-0.25" width="12.5" height="12.5" rx="4.25"
        transform="matrix(-1 0 0 1 13.5 1)" fill="#ACB7D0" />
    <rect x="0.25" y="-0.25" width="12.5" height="12.5" rx="4.25"
        transform="matrix(-1 0 0 1 13.5 1)" stroke="white" stroke-width="0.5" />
    <path
        d="M7 3.39506C7.0202 3.39506 7.03872 3.40011 7.05724 3.41021L10.0806 5.15587C10.1159 5.17607 10.1378 5.2131 10.1378 5.2535V8.74481C10.1378 8.78521 10.1159 8.82225 10.0806 8.84245L7.05724 10.5898C7.0404 10.5999 7.0202 10.6049 7 10.6049C6.9798 10.6049 6.96128 10.5999 6.94277 10.5898L3.92112 8.84413C3.88577 8.82393 3.86388 8.7869 3.86388 8.7465V5.2535C3.86388 5.2131 3.88577 5.17607 3.92112 5.15587L6.94445 3.41021C6.96128 3.40011 6.98149 3.39506 7 3.39506ZM7 2.885C6.89227 2.885 6.78453 2.91362 6.68858 2.96917L3.66524 4.71482C3.47334 4.82593 3.35382 5.0313 3.35382 5.2535V8.74481C3.35382 8.96702 3.47334 9.17407 3.66524 9.28518L6.68858 11.0308C6.78453 11.0864 6.89227 11.115 7 11.115C7.10774 11.115 7.21547 11.0864 7.31143 11.0308L10.3348 9.28518C10.5283 9.17407 10.6462 8.9687 10.6462 8.74481V5.2535C10.6462 5.0313 10.5267 4.82424 10.3348 4.71314L7.31311 2.96917C7.21547 2.91362 7.10774 2.885 7 2.885Z"
        fill="white" />
    <path
        d="M7.61107 7.62538L7.21211 8.71789C7.20033 8.74819 7.20033 8.78186 7.21211 8.81216L7.89724 10.6925L8.69011 10.2346L7.73901 7.62538C7.71712 7.56478 7.63295 7.56478 7.61107 7.62538Z"
        fill="white" />
    <path
        d="M8.40899 5.78714C8.3871 5.72654 8.30294 5.72654 8.28105 5.78714L7.88209 6.87965C7.87031 6.90995 7.87031 6.94362 7.88209 6.97392L9.0049 10.0528L9.79777 9.59493L8.40899 5.78714Z"
        fill="white" />
    <path
        d="M6.74582 5.00437H5.97988C5.92265 5.00437 5.87046 5.03973 5.85195 5.09359L4.20898 9.59829L5.00184 10.0562L6.81147 5.09528C6.82662 5.05151 6.79464 5.00437 6.74582 5.00437Z"
        fill="white" />
    <path
        d="M8.08746 5.00435H7.32152C7.26429 5.00435 7.2121 5.0397 7.19359 5.09357L5.31663 10.238L6.1095 10.6958L8.15142 5.09694C8.16826 5.05149 8.13459 5.00435 8.08746 5.00435Z"
        fill="white" />
</svg>