<svg width="14" height="14" viewBox="0 0 14 14" fill="none" xmlns="http://www.w3.org/2000/svg">
    <rect x="0.25" y="-0.25" width="12.5" height="12.5" rx="4.25"
        transform="matrix(-1 0 0 1 13.5 1)" fill="#F45B5C" />
    <rect x="0.25" y="-0.25" width="12.5" height="12.5" rx="4.25"
        transform="matrix(-1 0 0 1 13.5 1)" stroke="white" stroke-width="0.5" />
    <path fill-rule="evenodd" clip-rule="evenodd"
        d="M11.115 7C11.115 9.27265 9.27267 11.115 7.00001 11.115C4.72736 11.115 2.88501 9.27265 2.88501 7C2.88501 4.72735 4.72736 2.885 7.00001 2.885C9.27267 2.885 11.115 4.72735 11.115 7ZM5.83395 8.63748H5.03535C4.86754 8.63748 4.78464 8.63748 4.73409 8.60513C4.67951 8.56974 4.64615 8.51112 4.6421 8.44642C4.63907 8.38678 4.68052 8.31399 4.76341 8.16842L6.73527 4.69275C6.81917 4.54516 6.86163 4.47137 6.91521 4.44407C6.97283 4.41476 7.04157 4.41476 7.09919 4.44407C7.15277 4.47137 7.19523 4.54516 7.27914 4.69275L7.6845 5.40038L7.68658 5.40399C7.7772 5.56233 7.82315 5.64262 7.84321 5.72689C7.86545 5.81889 7.86545 5.91593 7.84321 6.00792C7.823 6.09284 7.7775 6.17372 7.68551 6.33445L6.64975 8.16539L6.64707 8.17009C6.55584 8.32972 6.50961 8.41063 6.44554 8.4717C6.37579 8.53841 6.29189 8.58693 6.1999 8.61423C6.116 8.63748 6.02198 8.63748 5.83395 8.63748ZM7.85069 8.63757H8.99503C9.16386 8.63757 9.24876 8.63757 9.29931 8.60422C9.3539 8.56883 9.38827 8.50918 9.39131 8.44449C9.39423 8.38681 9.35368 8.31684 9.27422 8.17974C9.27151 8.17506 9.26875 8.17031 9.26595 8.16548L8.69277 7.18492L8.68625 7.17389C8.6057 7.03767 8.56503 6.96889 8.51283 6.9423C8.45521 6.91298 8.38749 6.91298 8.32987 6.9423C8.27729 6.96959 8.23483 7.04137 8.15093 7.18592L7.57978 8.16649L7.57782 8.16987C7.49421 8.31419 7.45242 8.38632 7.45544 8.4455C7.45948 8.5102 7.49284 8.56984 7.54743 8.60522C7.59696 8.63757 7.68187 8.63757 7.85069 8.63757Z"
        fill="white" />
</svg>