<svg width="14" height="14" viewBox="0 0 14 14" fill="none" xmlns="http://www.w3.org/2000/svg">
    <rect x="0.25" y="-0.25" width="12.5" height="12.5" rx="4.25"
        transform="matrix(-1 0 0 1 13.5 1)" fill="#F0B90B" />
    <rect x="0.25" y="-0.25" width="12.5" height="12.5" rx="4.25"
        transform="matrix(-1 0 0 1 13.5 1)" stroke="white" stroke-width="0.5" />
    <path
        d="M4.28791 7.00004L4.29226 8.59226L5.64516 9.38839V10.3206L3.50048 9.06271V6.53443L4.28791 7.00004ZM4.28791 5.40782V6.33567L3.5 5.86957V4.94173L4.28791 4.47564L5.07968 4.94173L4.28791 5.40782ZM6.21015 4.94173L6.99806 4.47564L7.78985 4.94173L6.99806 5.40782L6.21015 4.94173Z"
        fill="white" />
    <path
        d="M4.85725 8.26225V7.33006L5.64516 7.79617V8.72398L4.85725 8.26225ZM6.21015 9.72229L6.99806 10.1884L7.78985 9.72229V10.6501L6.99806 11.1162L6.21015 10.6501V9.72229ZM8.91984 4.94173L9.70775 4.47564L10.4995 4.94173V5.86957L9.70775 6.33567V5.40782L8.91984 4.94173ZM9.70775 8.59226L9.71209 7.00004L10.5 6.53397V9.06222L8.35534 10.3201V9.3879L9.70775 8.59226Z"
        fill="white" />
    <path d="M9.14276 8.26225L8.35485 8.72401V7.79617L9.14276 7.33009V8.26225Z" fill="white" />
    <path
        d="M9.14276 5.73786L9.14709 6.67002L7.79031 7.46615V9.06225L7.0024 9.52399L6.21449 9.06225V7.46615L4.85773 6.67002V5.73786L5.64902 5.27177L6.9976 6.07174L8.35435 5.27177L9.14614 5.73786H9.14276ZM4.85725 4.14611L6.99806 2.88391L9.14276 4.14611L8.35484 4.6122L6.99806 3.81223L5.64516 4.6122L4.85725 4.14611Z"
        fill="white" />
</svg>