<svg width="14" height="14" viewBox="0 0 14 14" fill="none" xmlns="http://www.w3.org/2000/svg">
    <rect x="0.25" y="-0.25" width="12.5" height="12.5" rx="4.25"
        transform="matrix(-1 0 0 1 13.5 1)" fill="white" />
    <rect x="0.25" y="-0.25" width="12.5" height="12.5" rx="4.25"
        transform="matrix(-1 0 0 1 13.5 1)" stroke="white" stroke-width="0.5" />
    <path
        d="M7.00086 2.95766L7.05828 3.1419V8.48763L7.00086 8.54174L4.37417 7.07498L7.00086 2.95766Z"
        fill="#343434" />
    <path d="M7.00086 2.95766L9.62759 7.075L7.00086 8.54174L7.00083 5.9471L7.00086 2.95766Z"
        fill="#8C8C8C" />
    <path d="M7.00092 9.0115L7.03328 9.04878V10.953L7.00092 11.0422L4.37262 7.5455L7.00092 9.0115Z"
        fill="#3C3C3B" />
    <path d="M7.00092 11.0422V9.0115L9.62759 7.5455L7.00092 11.0422Z" fill="#8C8C8C" />
    <path d="M7.00086 8.54174L4.37417 7.07498L7.00083 5.9471L7.00086 8.54174Z" fill="#141414" />
    <path d="M9.62759 7.075L7.00086 8.54174L7.00083 5.9471L9.62759 7.075Z" fill="#393939" />
</svg>