<svg width="14" height="14" viewBox="0 0 14 14" fill="none" xmlns="http://www.w3.org/2000/svg">
    <rect x="0.25" y="-0.25" width="12.5" height="12.5" rx="4.25"
        transform="matrix(-1 0 0 1 13.5 1)" fill="#7B3FE4" />
    <rect x="0.25" y="-0.25" width="12.5" height="12.5" rx="4.25"
        transform="matrix(-1 0 0 1 13.5 1)" stroke="white" stroke-width="0.5" />
    <path
        d="M9.04602 5.63947C8.90062 5.55638 8.71367 5.55638 8.5475 5.63947L7.3843 6.32493L6.59498 6.76113L5.45254 7.44659C5.30714 7.52967 5.1202 7.52967 4.95403 7.44659L4.06085 6.90653C3.91545 6.82344 3.8116 6.65727 3.8116 6.47033V5.43175C3.8116 5.26558 3.89468 5.09941 4.06085 4.99555L4.95403 4.47626C5.09943 4.39318 5.28637 4.39318 5.45254 4.47626L6.34572 5.01632C6.49112 5.09941 6.59498 5.26558 6.59498 5.45252V6.13798L7.3843 5.68101V4.97478C7.3843 4.80861 7.30121 4.64243 7.13504 4.53858L5.47332 3.56231C5.32792 3.47923 5.14097 3.47923 4.9748 3.56231L3.27154 4.55935C3.10536 4.64243 3.02228 4.80861 3.02228 4.97478V6.9273C3.02228 7.09347 3.10536 7.25964 3.27154 7.3635L4.95403 8.33976C5.09943 8.42285 5.28637 8.42285 5.45254 8.33976L6.59498 7.67507L7.3843 7.2181L8.52673 6.55341C8.67213 6.47033 8.85907 6.47033 9.02524 6.55341L9.91842 7.0727C10.0638 7.15579 10.1677 7.32196 10.1677 7.5089V8.54748C10.1677 8.71365 10.0846 8.87982 9.91842 8.98368L9.04602 9.50297C8.90062 9.58605 8.71367 9.58605 8.5475 9.50297L7.65433 8.98368C7.50892 8.90059 7.40507 8.73442 7.40507 8.54748V7.88279L6.61575 8.33976V9.02522C6.61575 9.19139 6.69884 9.35757 6.86501 9.46142L8.5475 10.4377C8.6929 10.5208 8.87984 10.5208 9.04602 10.4377L10.7285 9.46142C10.8739 9.37834 10.9778 9.21217 10.9778 9.02522V7.05193C10.9778 6.88576 10.8947 6.71958 10.7285 6.61573L9.04602 5.63947Z"
        fill="white" />
</svg>