<svg width="14" height="14" viewBox="0 0 14 14" fill="none" xmlns="http://www.w3.org/2000/svg">
    <rect x="0.25" y="-0.25" width="12.5" height="12.5" rx="4.25"
        transform="matrix(-1 0 0 1 13.5 1)" fill="#EFD5B6" />
    <rect x="0.25" y="-0.25" width="12.5" height="12.5" rx="4.25"
        transform="matrix(-1 0 0 1 13.5 1)" stroke="white" stroke-width="0.5" />
    <path
        d="M3.9325 6.05547C3.61978 5.75163 3.40056 5.35862 3.40056 4.89296V4.84343C3.42635 4.04751 4.06468 3.40681 4.84163 3.38369H9.78704C9.916 3.39029 10.0192 3.48277 10.0192 3.61817V7.9049C10.132 7.92474 10.1868 7.94125 10.2964 7.98089C10.3835 8.01391 10.5027 8.08325 10.5027 8.08325V3.61817C10.4963 3.21195 10.1803 2.885 9.78383 2.885H4.8384C3.7713 2.90151 2.91376 3.79651 2.91376 4.89296C2.91376 5.53036 3.19746 6.07528 3.66169 6.45837C3.69393 6.48482 3.72295 6.51784 3.80677 6.51784C3.95184 6.51784 4.05501 6.39893 4.04856 6.27014C4.04533 6.16115 4.0002 6.12152 3.9325 6.05547Z"
        fill="white" />
    <path
        d="M9.65808 8.18563H5.77979C5.51865 8.18892 5.3091 8.40362 5.3091 8.67111V9.24243C5.31555 9.50667 5.53478 9.73123 5.79591 9.73123H6.08283V9.24243H5.79591V8.68433C5.79591 8.68433 5.86683 8.68433 5.95388 8.68433C6.4439 8.68433 6.80499 9.14997 6.80499 9.64867C6.80499 10.0912 6.41166 10.6559 5.754 10.6097C5.17048 10.5701 4.85454 10.0384 4.85454 9.64867V4.8071C4.85454 4.58913 4.68045 4.41079 4.46768 4.41079H4.08081V4.90618H4.36774V9.65196C4.35162 10.6163 5.0383 11.1018 5.754 11.1018L9.66134 11.115C10.4479 11.115 11.0863 10.4611 11.0863 9.65196C11.0863 8.84284 10.4447 8.18563 9.65808 8.18563ZM10.5994 9.6817C10.5833 10.2002 10.1675 10.6163 9.65808 10.6163L6.94038 10.6064C7.15639 10.3488 7.28857 10.0152 7.28857 9.65196C7.28857 9.08063 6.95649 8.68762 6.95649 8.68762H9.66134C10.1803 8.68762 10.6027 9.12027 10.6027 9.65196L10.5994 9.6817Z"
        fill="white" />
    <path
        d="M8.61348 4.9954H5.68944V4.50002H8.61348C8.74566 4.50002 8.85529 4.609 8.85529 4.74771C8.85529 4.88312 8.74891 4.9954 8.61348 4.9954Z"
        fill="white" />
    <path
        d="M8.61348 7.32693H5.68944V6.83152H8.61348C8.74566 6.83152 8.85529 6.94053 8.85529 7.07925C8.85529 7.21463 8.74891 7.32693 8.61348 7.32693Z"
        fill="white" />
    <path
        d="M9.12932 6.16116H5.68944V5.66578H9.12607C9.25828 5.66578 9.36787 5.77476 9.36787 5.91347C9.37109 6.04887 9.26149 6.16116 9.12932 6.16116Z"
        fill="white" />
</svg>