<svg width="14" height="14" viewBox="0 0 14 14" fill="none" xmlns="http://www.w3.org/2000/svg">
    <rect x="0.25" y="-0.25" width="12.5" height="12.5" rx="4.25"
        transform="matrix(-1 0 0 1 13.5 1)" fill="#9D1919" />
    <rect x="0.25" y="-0.25" width="12.5" height="12.5" rx="4.25"
        transform="matrix(-1 0 0 1 13.5 1)" stroke="white" stroke-width="0.5" />
    <path fill-rule="evenodd" clip-rule="evenodd"
        d="M6.98953 11.115C8.20887 11.115 9.30436 10.5847 10.0579 9.74204C9.70735 9.4374 9.17912 9.41889 8.80595 9.72L8.73466 9.77753C8.05141 10.3288 7.05583 10.2474 6.47123 9.59243C6.15239 9.23518 5.60634 9.19871 5.24281 9.51037L4.42086 10.215C5.12485 10.7782 6.01786 11.115 6.98953 11.115ZM8.32372 9.12238C8.97451 8.59724 9.88924 8.61608 10.5151 9.12327C10.8893 8.50339 11.1045 7.77684 11.1045 6.99999C11.1045 6.13681 10.8388 5.33571 10.3846 4.67404C10.0918 4.61168 9.77442 4.68451 9.53351 4.898L9.46494 4.95876C8.80786 5.54103 7.80959 5.50564 7.19539 4.87832C6.86039 4.53617 6.31324 4.52494 5.96449 4.85305L5.00798 5.75292L4.48178 5.19362L5.4383 4.29374C6.09159 3.67912 7.11656 3.70017 7.74409 4.34109C8.07197 4.67598 8.60488 4.69487 8.95565 4.38403L9.0242 4.32327C9.23712 4.13458 9.48348 4.00738 9.74141 3.94048C9.01238 3.28433 8.04759 2.885 6.98953 2.885C4.90059 2.885 3.17521 4.44153 2.9099 6.45802C3.54439 6.15355 4.32703 6.27071 4.84437 6.80049C5.17096 7.13494 5.69684 7.17024 6.06521 6.88244L6.60002 6.46463C7.27213 5.93954 8.22226 5.96496 8.86534 6.52525L9.90654 7.43238L9.4021 8.01137L8.36091 7.10423C7.99523 6.78565 7.45497 6.77118 7.07277 7.06978L6.53798 7.48758C5.86118 8.01632 4.895 7.95147 4.29497 7.33699C3.94604 6.97968 3.37537 6.96721 3.01118 7.30895L2.89545 7.41754C2.98206 8.27702 3.33314 9.05843 3.86609 9.67917L4.743 8.92738C5.42397 8.34356 6.44687 8.41189 7.04415 9.0811C7.35623 9.43076 7.88769 9.47422 8.25243 9.17991L8.32372 9.12238Z"
        fill="white" />
</svg>