<svg width="14" height="14" viewBox="0 0 14 14" fill="none" xmlns="http://www.w3.org/2000/svg">
    <rect x="0.25" y="-0.25" width="12.5" height="12.5" rx="4.25"
        transform="matrix(-1 0 0 1 13.5 1)" fill="#2CDABB" />
    <rect x="0.25" y="-0.25" width="12.5" height="12.5" rx="4.25"
        transform="matrix(-1 0 0 1 13.5 1)" stroke="white" stroke-width="0.5" />
    <path
        d="M11.4257 9.30751L9.949 10.8908C9.91707 10.9252 9.87839 10.9527 9.83537 10.9715C9.79236 10.9902 9.74594 11 9.699 11H2.69904C2.66565 11 2.63299 10.9902 2.60506 10.9719C2.57714 10.9536 2.55515 10.9276 2.5418 10.897C2.52844 10.8664 2.5243 10.8326 2.52988 10.7997C2.53546 10.7667 2.55051 10.7362 2.5732 10.7117L4.0482 9.12834C4.08013 9.09395 4.11882 9.06651 4.16183 9.04773C4.20484 9.02894 4.25126 9.01923 4.29819 9.01918H11.2982C11.3319 9.01848 11.365 9.02777 11.3934 9.04586C11.4219 9.06396 11.4443 9.09006 11.4579 9.12088C11.4716 9.1517 11.4758 9.18587 11.47 9.21908C11.4643 9.25228 11.4488 9.28305 11.4257 9.30751ZM9.949 6.11836C9.91694 6.08412 9.87823 6.05678 9.83525 6.03801C9.79227 6.01924 9.74591 6.00944 9.699 6.00919H2.69904C2.66565 6.00921 2.63299 6.01896 2.60506 6.03726C2.57714 6.05555 2.55515 6.08159 2.5418 6.11219C2.52844 6.14279 2.5243 6.17662 2.52988 6.20954C2.53546 6.24245 2.55051 6.27303 2.5732 6.29752L4.0482 7.88168C4.08026 7.91592 4.11896 7.94325 4.16195 7.96202C4.20493 7.98079 4.25129 7.9906 4.29819 7.99085H11.2982C11.3315 7.99067 11.364 7.9808 11.3918 7.96244C11.4196 7.94408 11.4415 7.91803 11.4547 7.88746C11.468 7.8569 11.4721 7.82314 11.4665 7.79029C11.4608 7.75745 11.4458 7.72695 11.4232 7.70251L9.949 6.11836ZM2.69904 4.98086H9.699C9.74594 4.98082 9.79236 4.97111 9.83538 4.95232C9.87839 4.93354 9.91707 4.90609 9.949 4.87169L11.4257 3.28837C11.443 3.27007 11.456 3.24817 11.4639 3.22424C11.4718 3.20031 11.4742 3.17494 11.4711 3.14994C11.4681 3.12494 11.4595 3.10093 11.4461 3.07963C11.4326 3.05832 11.4146 3.04025 11.3934 3.0267C11.365 3.00862 11.3318 2.99934 11.2982 3.00004H4.29819C4.25126 3.00009 4.20484 3.0098 4.16183 3.02859C4.11882 3.04737 4.08013 3.07481 4.0482 3.1092L2.5732 4.69253C2.55051 4.71702 2.53546 4.7476 2.52988 4.78051C2.5243 4.81343 2.52844 4.84726 2.5418 4.87786C2.55515 4.90846 2.57714 4.9345 2.60506 4.95279C2.63299 4.97109 2.66565 4.98084 2.69904 4.98086Z"
        fill="white" />
</svg>