<svg width="14" height="14" viewBox="0 0 14 14" fill="none" xmlns="http://www.w3.org/2000/svg">
    <rect x="0.25" y="-0.25" width="12.5" height="12.5" rx="4.25"
        transform="matrix(-1 0 0 1 13.5 1)" fill="#547EF1" />
    <rect x="0.25" y="-0.25" width="12.5" height="12.5" rx="4.25"
        transform="matrix(-1 0 0 1 13.5 1)" stroke="white" stroke-width="0.5" />
    <path
        d="M9.70116 3H4.29857C3.30523 3 2.67563 4.07152 3.17538 4.93775L6.50965 10.717C6.72723 11.0943 7.2725 11.0943 7.49008 10.717L10.825 4.93775C11.3241 4.0729 10.6945 3 9.70183 3H9.70116ZM6.50694 8.98387L5.78079 7.57851L4.02867 4.44481C3.91308 4.24424 4.05585 3.98721 4.29789 3.98721H6.50626V8.98455L6.50694 8.98387ZM9.96971 4.44413L8.21826 7.57919L7.49211 8.98387V3.98653H9.70048C9.94253 3.98653 10.0853 4.24356 9.96971 4.44413Z"
        fill="white" />
</svg>