<svg width="59" height="12" viewBox="0 0 59 12" fill="none" xmlns="http://www.w3.org/2000/svg">
    <path
        d="M13.4642 6.9455C13.6488 6.9455 13.8497 6.92783 14.0669 6.89249C14.295 6.84536 14.4633 6.78645 14.5719 6.71575V5.30191L13.399 5.40795C13.095 5.43152 12.8452 5.50221 12.6497 5.62003C12.4542 5.73785 12.3565 5.91458 12.3565 6.15022C12.3565 6.38586 12.4379 6.58026 12.6008 6.73343C12.7746 6.87481 13.0624 6.9455 13.4642 6.9455ZM13.3339 0C13.9203 0 14.4524 0.0648012 14.9303 0.194404C15.4189 0.324006 15.8316 0.5243 16.1683 0.795287C16.5158 1.05449 16.7818 1.39028 16.9665 1.80265C17.1511 2.20324 17.2434 2.68041 17.2434 3.23417V7.19293C17.2434 7.49926 17.1619 7.75257 16.999 7.95286C16.847 8.14138 16.6624 8.30632 16.4452 8.44771C15.7393 8.90721 14.7456 9.13696 13.4642 9.13696C12.8886 9.13696 12.3674 9.07805 11.9004 8.96023C11.4443 8.84241 11.0479 8.66568 10.7112 8.43003C10.3855 8.19439 10.1302 7.89395 9.94563 7.52871C9.77188 7.16347 9.685 6.73932 9.685 6.25626C9.685 5.4433 9.90763 4.81885 10.3529 4.38291C10.7981 3.94698 11.4877 3.67599 12.4217 3.56996L14.5556 3.32253V3.19882C14.5556 2.85714 14.4144 2.61561 14.1321 2.47423C13.8606 2.32106 13.4642 2.24448 12.9429 2.24448C12.5303 2.24448 12.1284 2.29161 11.7375 2.38586C11.136 2.53088 10.6545 2.98731 10.3203 2.26215C10.2226 2.03829 10.1737 1.80854 10.1737 1.5729C10.1737 1.26657 10.2388 1.02504 10.3692 0.848307C10.5103 0.659794 10.7221 0.500738 11.0045 0.371135C11.3194 0.241533 11.6886 0.147275 12.1122 0.0883648C12.5465 0.0294544 12.9538 0 13.3339 0Z"
        fill="#637381" />
    <path
        d="M31.8854 6.9455C32.0701 6.9455 32.271 6.92783 32.4882 6.89249C32.7162 6.84536 32.8845 6.78645 32.9931 6.71575V5.30191L31.8203 5.40795C31.5162 5.43152 31.2664 5.50221 31.071 5.62003C30.8755 5.73785 30.7777 5.91458 30.7777 6.15022C30.7777 6.38586 30.8592 6.58026 31.0221 6.73343C31.1958 6.87481 31.4836 6.9455 31.8854 6.9455ZM31.7551 0C32.3415 0 32.8737 0.0648012 33.3515 0.194404C33.8402 0.324006 34.2529 0.5243 34.5895 0.795287C34.937 1.05449 35.2031 1.39028 35.3877 1.80265C35.5723 2.20324 35.6646 2.68041 35.6646 3.23417V7.19293C35.6646 7.49926 35.5832 7.75257 35.4203 7.95286C35.2682 8.14138 35.0836 8.30632 34.8664 8.44771C34.1606 8.90721 33.1669 9.13696 31.8854 9.13696C31.3099 9.13696 30.7886 9.07805 30.3216 8.96023C29.8655 8.84241 29.4692 8.66568 29.1325 8.43003C28.8067 8.19439 28.5515 7.89395 28.3669 7.52871C28.1931 7.16347 28.1063 6.73932 28.1063 6.25626C28.1063 5.4433 28.3289 4.81885 28.7741 4.38291C29.2194 3.94698 29.909 3.67599 30.8429 3.56996L32.9768 3.32253V3.19882C32.9768 2.85714 32.8357 2.61561 32.5533 2.47423C32.2818 2.32106 31.8854 2.24448 31.3642 2.24448C30.9515 2.24448 30.5497 2.29161 30.1587 2.38586C29.5572 2.53088 29.0757 2.98731 28.7415 2.26215C28.6438 2.03829 28.5949 1.80854 28.5949 1.5729C28.5949 1.26657 28.6601 1.02504 28.7904 0.848307C28.9316 0.659794 29.1434 0.500738 29.4257 0.371135C29.7406 0.241533 30.1099 0.147275 30.5334 0.0883648C30.9678 0.0294544 31.375 0 31.7551 0Z"
        fill="#637381" />
    <path
        d="M38.405 6.66273C38.2855 6.36818 38.1552 6.03829 38.014 5.67305C37.8837 5.3078 37.7425 4.88954 37.5905 4.41826C37.4493 3.94698 37.2973 3.4109 37.1344 2.81002C36.9026 1.87598 36.254 0.751823 37.2484 0.282769C37.509 0.153166 37.7914 0.0883648 38.0955 0.0883648C38.4756 0.0883648 38.7905 0.176731 39.0403 0.353461C39.29 0.518409 39.4747 0.836524 39.5941 1.3078L40.881 6.16789H40.9461C41.0765 5.7673 41.2014 5.33137 41.3208 4.86009C41.4511 4.3888 41.576 3.90574 41.6955 3.4109C41.8149 2.90427 41.9235 2.40354 42.0213 1.90869C42.2748 0.725916 42.2847 0.0883648 43.5851 0.0883648C43.9652 0.0883648 44.2801 0.176731 44.5299 0.353461C44.7796 0.530191 44.9045 0.836524 44.9045 1.27246C44.9045 1.59057 44.8665 1.96171 44.7905 2.38586C44.7145 2.79823 44.6113 3.24006 44.481 3.71134C44.3615 4.18262 44.2149 4.67157 44.0412 5.1782C43.8783 5.67305 43.7045 6.162 43.5199 6.64506C43.3353 7.12813 43.1452 7.58762 42.9498 8.02356C42.7543 8.44771 42.5642 8.83063 42.3796 9.17231C42.0756 9.74962 41.7932 10.2209 41.5326 10.5861C41.2719 10.9514 41.0222 11.2342 40.7833 11.4345C40.5443 11.6465 40.3054 11.7879 40.0665 11.8586C39.8276 11.9411 39.5778 11.9823 39.3172 11.9823C38.8611 11.9823 38.4918 11.835 38.2095 11.5405C37.5032 10.8037 37.8682 10.4199 38.7471 9.40205C39.1664 8.91637 39.2192 8.54865 39.0179 8.08298C38.894 7.79635 38.6547 7.26362 38.405 6.66273Z"
        fill="#637381" />
    <path
        d="M49.3681 6.9455C49.5527 6.9455 49.7536 6.92783 49.9708 6.89249C50.1989 6.84536 50.3672 6.78645 50.4758 6.71575V5.30191L49.303 5.40795C48.9989 5.43152 48.7491 5.50221 48.5536 5.62003C48.3582 5.73785 48.2604 5.91458 48.2604 6.15022C48.2604 6.38586 48.3419 6.58026 48.5048 6.73343C48.6785 6.87481 48.9663 6.9455 49.3681 6.9455ZM49.2378 0C49.8242 0 50.3564 0.0648012 50.8342 0.194404C51.3229 0.324006 51.7356 0.5243 52.0722 0.795287C52.4197 1.05449 52.6858 1.39028 52.8704 1.80265C53.055 2.20324 53.1473 2.68041 53.1473 3.23417V7.19293C53.1473 7.49926 53.0659 7.75257 52.903 7.95286C52.7509 8.14138 52.5663 8.30632 52.3491 8.44771C51.6432 8.90721 50.6496 9.13696 49.3681 9.13696C48.7926 9.13696 48.2713 9.07805 47.8043 8.96023C47.3482 8.84241 46.9518 8.66568 46.6152 8.43003C46.2894 8.19439 46.0342 7.89395 45.8496 7.52871C45.6758 7.16347 45.5889 6.73932 45.5889 6.25626C45.5889 5.4433 45.8116 4.81885 46.2568 4.38291C46.7021 3.94698 47.3917 3.67599 48.3256 3.56996L50.4595 3.32253V3.19882C50.4595 2.85714 50.3184 2.61561 50.036 2.47423C49.7645 2.32106 49.3681 2.24448 48.8469 2.24448C48.4342 2.24448 48.0324 2.29161 47.6414 2.38586C47.0399 2.53088 46.5584 2.98731 46.2242 2.26215C46.1265 2.03829 46.0776 1.80854 46.0776 1.5729C46.0776 1.26657 46.1428 1.02504 46.2731 0.848307C46.4143 0.659794 46.626 0.500738 46.9084 0.371135C47.2233 0.241533 47.5926 0.147275 48.0161 0.0883648C48.4505 0.0294544 48.8577 0 49.2378 0Z"
        fill="#637381" />
    <path
        d="M22.6261 3.88024e-06C23.2777 3.88024e-06 23.8804 0.0942596 24.4343 0.282772C24.999 0.459503 25.4822 0.736381 25.884 1.11341C26.2858 1.49043 26.6008 1.9676 26.8288 2.54492C27.0569 3.11046 27.1709 3.78793 27.1709 4.57732C27.1709 5.33137 27.0732 5.99117 26.8777 6.5567C26.6822 7.12224 26.4053 7.59941 26.0469 7.98822C25.6886 8.36524 25.2542 8.64801 24.7438 8.83653C24.2442 9.02504 23.6849 9.1193 23.0659 9.1193C22.599 9.1193 22.1646 9.04271 21.7628 8.88954V11.2931C21.7628 11.6233 21.4804 11.894 21.2415 11.9293C21.0026 11.9764 20.7582 12 20.5085 12C20.2695 12 20.0524 11.9823 19.8569 11.947C19.6723 11.9116 19.5148 11.8409 19.3845 11.7349C19.2542 11.6289 19.1564 11.4816 19.0913 11.2931C19.0261 11.1163 18.9935 10.8807 18.9935 10.5862V2.1031C18.9935 1.78498 19.0533 1.52578 19.1727 1.32548C19.303 1.12519 19.4768 0.942566 19.694 0.777617C20.0306 0.541977 20.4487 0.353465 20.9483 0.21208C21.4478 0.0706957 22.0071 3.88024e-06 22.6261 3.88024e-06ZM22.6587 6.75111C23.7772 6.75111 24.3365 6.02651 24.3365 4.57732C24.3365 3.82327 24.1953 3.26363 23.913 2.89838C23.6415 2.53314 23.2451 2.35052 22.7238 2.35052C22.5175 2.35052 22.3329 2.37997 22.17 2.43888C22.0071 2.48601 21.8659 2.54492 21.7465 2.61561V6.50368C21.8768 6.57438 22.018 6.63329 22.17 6.68041C22.322 6.72754 22.4849 6.75111 22.6587 6.75111Z"
        fill="#637381" />
    <path
        d="M4.13258 0C4.78417 0 5.38688 0.0942557 5.94073 0.282769C6.50543 0.459499 6.98869 0.736377 7.3905 1.1134C7.79231 1.49043 8.10725 1.9676 8.3353 2.54492C8.56335 3.11046 8.67738 3.78792 8.67738 4.57732C8.67738 5.33137 8.57964 5.99116 8.38417 6.5567C8.18869 7.12224 7.91177 7.59941 7.5534 7.98822C7.19503 8.36524 6.76064 8.64801 6.25023 8.83652C5.75068 9.02504 5.19141 9.11929 4.5724 9.11929C4.10543 9.11929 3.67104 9.04271 3.26923 8.88954V11.2931C3.26923 11.6233 2.98688 11.894 2.74797 11.9293C2.50905 11.9764 2.26471 12 2.01493 12C1.77602 12 1.55883 11.9823 1.36335 11.947C1.17873 11.9116 1.02127 11.8409 0.89095 11.7349C0.760633 11.6289 0.662897 11.4816 0.597738 11.2931C0.53258 11.1163 0.5 10.8807 0.5 10.5862V2.10309C0.5 1.78498 0.559729 1.52577 0.679186 1.32548C0.809503 1.12518 0.983258 0.942562 1.20045 0.777614C1.5371 0.541973 1.95521 0.353461 2.45475 0.212076C2.9543 0.0706918 3.51358 0 4.13258 0ZM4.16516 6.7511C5.28371 6.7511 5.84299 6.02651 5.84299 4.57732C5.84299 3.82327 5.70181 3.26362 5.41946 2.89838C5.14797 2.53314 4.75159 2.35051 4.23032 2.35051C4.02398 2.35051 3.83937 2.37997 3.67647 2.43888C3.51358 2.48601 3.3724 2.54492 3.25294 2.61561V6.50368C3.38326 6.57437 3.52444 6.63328 3.67647 6.68041C3.82851 6.72754 3.9914 6.7511 4.16516 6.7511Z"
        fill="#637381" />
    <path
        d="M58.5 7.68025C58.5 8.48286 57.9003 9.1335 57.1605 9.1335C56.4207 9.1335 55.821 8.48286 55.821 7.68025C55.821 6.87765 56.4207 6.227 57.1605 6.227C57.9003 6.227 58.5 6.87765 58.5 7.68025Z"
        fill="#637381" />
</svg>